# AST/ASF file generated using VICON BodyLanguage
# -----------------------------------------------
:version 1.10
:name VICON
:units
  mass 1.0
  length 0.45
  angle deg
:documentation
   .ast/.asf automatically generated from VICON data using
   VICON BodyBuilder and BodyLanguage model FoxedUp or BRILLIANT.MOD
:root
   order TX TY TZ RX RY RZ
   axis XYZ
   position 0 0 0  
   orientation 0 0 0 
:bonedata
  begin
     id 1 
     name lhipjoint
     direction 0.547975 -0.797114 0.253638 
     length 2.36201 
     axis 0 0 0  XYZ
  end
  begin
     id 2 
     name lfemur
     direction 0.34202 -0.939693 0  
     length 7.69075  
     axis 0 0 20  XYZ
    dof rx ry rz
    limits (-160.0 20.0)
           (-70.0 70.0)
           (-60.0 70.0)
  end
  begin
     id 3 
     name ltibia
     direction 0.34202 -0.939693 0   
     length 7.91399   
     axis 0 0 20   XYZ
    dof rx
    limits (-10.0 170.0)
  end
  begin
     id 4 
     name lfoot
     direction 0.0705293 -0.193778 0.978507   
     length 2.13618   
     axis -90 7.62852e-016 20   XYZ
    dof rx rz
    limits (-45.0 90.0)
           (-70.0 20.0)
  end
  begin
     id 5 
     name ltoes
     direction 1.53592e-011 -4.21925e-011 1   
     length 1.07518   
     axis -90 7.62852e-016 20   XYZ
    dof rx
    limits (-90.0 20.0)
  end
  begin
     id 6 
     name rhipjoint
     direction -0.57 -0.782963 0.249136   
     length 2.4047  
     axis 0 0 0  XYZ 
  end
  begin
     id 7 
     name rfemur
     direction -0.34202 -0.939693 0   
     length 7.51486   
     axis 0 0 -20   XYZ
    dof rx ry rz
    limits (-160.0 20.0)
           (-70.0 70.0)
           (-70.0 60.0)
  end
  begin
     id 8 
     name rtibia
     direction -0.34202 -0.939693 0   
     length 8.08317   
     axis 0 0 -20   XYZ
    dof rx
    limits (-10.0 170.0)
 end
 begin
     id 9 
     name rfoot
     direction -0.104954 -0.281256 0.953876   
     length 2.30343  
     axis -90 -7.62852e-016 -20   XYZ
    dof rx rz
    limits (-45.0 90.0)
           (-20.0 70.0)
  end
  begin
     id 10 
     name rtoes
     direction -1.53556e-011 -4.21922e-011 1   
     length 1.14803   
     axis -90 -7.62852e-016 -20   XYZ
    dof rx
    limits (-90.0 20.0)
  end
  begin
     id 11 
     name lowerback
     direction -0.0152855 0.99353 -0.11254   
     length 2.05311   
     axis 0 0 0   XYZ
    dof rx ry rz
    limits (-20.0 45.0)
           (-30.0 30.0)
           (-30.0 30.0)
  end
  begin
     id 12 
     name upperback
     direction -0.00157509 0.999443 -0.033332   
     length 2.06353   
     axis 0 0 0   XYZ
    dof rx ry rz
    limits (-20.0 45.0)
           (-30.0 30.0)
           (-30.0 30.0)
  end
  begin
     id 13 
     name thorax
     direction 0.00577788 0.999804 0.0189484   
     length 2.08472   
     axis 0 0 0   XYZ
    dof rx ry rz
    limits (-20.0 45.0)
           (-30.0 30.0)
           (-30.0 30.0)
  end
  begin
     id 14 
     name lowerneck
     direction -1.09301e-005 0.994719 0.10264   
     length 1.76249   
     axis 0 0 0   XYZ
    dof rx ry rz
    limits (-20.0 45.0)
           (-30.0 30.0)
           (-30.0 30.0)
  end
  begin
     id 15 
     name upperneck
     direction 0.0495018 0.988526 -0.142706   
     length 1.77897   
     axis 0 0 0   XYZ
    dof rx ry rz
    limits (-20.0 45.0)
           (-30.0 30.0)
           (-30.0 30.0)
  end
  begin
     id 16
     name head
     direction 0.0142736 0.998114 -0.0597101  
     length 1.78934  
     axis 0 0 0   XYZ
    dof rx ry rz
    limits (-20.0 45.0)
           (-30.0 30.0)
           (-30.0 30.0)
  end
  begin
     id 17 
     name lclavicle
     direction 0.918111 0.396107 -0.0130883  
     length 3.37276  
     axis 0 0 0   XYZ
    dof ry rz
    limits (-20.0 10.0)
           (0.0 20.0)
  end
  begin
     id 18 
     name lhumerus
     direction 1 -4.48975e-011 -3.26108e-027   
     length 5.34298   
     axis 180 -30 -90   XYZ
    dof rx ry rz
    limits (-60.0 90.0)
           (-90.0 90.0)
           (-90.0 90.0)
  end
  begin
     id 19
     name lradius
     direction 1 -4.48964e-011 -8.84413e-028   
     length 3.67262   
     axis 180 -30 -90   XYZ
    dof rx
    limits (-10.0 170.0)
  end
  begin
     id 20
     name lwrist
     direction 1 -4.48991e-011 -1.24264e-027   
     length 1.83631   
     axis -2.17013e-015 90 90   XYZ
    dof ry
    limits (-180.0 0.0)
 end
  begin
     id 21 
     name lhand
     direction 1 -4.48855e-011 -2.48528e-027   
     length 0.599298   
     axis 1.58582e-015 90 90   XYZ
    dof rx rz
    limits (-90.0 90.0)
           (-45.0 45.0)
  end
  begin
     id 22 
     name lfingers
     direction 1 -4.48811e-011 -4.97056e-027   
     length 0.48317   
     axis 3.17164e-015 90 90   XYZ
    dof rx
    limits (0.0 90.0)
  end
  begin
     id 23
     name lthumb
     direction 0.707107 -6.34882e-011 0.707107   
     length 0.693738   
     axis -90 45 2.85299e-015   XYZ
    dof rx rz
    limits (-45.0 45.0)
           (-45.0 45.0)
  end
  begin
     id 24 
     name rclavicle
     direction -0.920511 0.384752 -0.0680135   
     length 3.43787  
     axis 0 0 0   XYZ 
    dof ry rz
    limits (-10.0 20.0)
           (-20.0 0.0)
  end
  begin
     id 25 
     name rhumerus
     direction -0.999976 -0.00330524 0.00603274  
     length 5.5498   
     axis 180 30 90   XYZ
    dof rx ry rz
    limits (-90.0 60.0)
           (-90.0 90.0)
           (-90.0 90.0)
  end
  begin
     id 26 
     name rradius
     direction -1 -4.48967e-011 8.62438e-027   
     length 3.69401   
     axis 180 30 90   XYZ
    dof rx
    limits (-10.0 170.0)
  end
  begin
     id 27 
     name rwrist
     direction -1 -4.4897e-011 9.54866e-027   
     length 1.84701   
     axis -7.69462e-015 -90 -90   XYZ
    dof ry
    limits (-180.0 0.0)
  end
  begin
     id 28
     name rhand
     direction -1 -4.48982e-011 1.90973e-026   
     length 0.638113   
     axis -1.21857e-014 -90 -90   XYZ
    dof rx rz
    limits (-90.0 90.0)
           (-45.0 45.0)
  end
  begin
     id 29
     name rfingers
     direction -1 -4.48936e-011 3.81946e-026   
     length 0.514463   
     axis -2.43714e-014 -90 -90   XYZ
    dof rx
    limits (0.0 90.0)
  end
  begin
     id 30
     name rthumb
     direction -0.707107 -6.34942e-011 0.707107   
     length 0.738669   
     axis -90 -45 -2.85299e-015   XYZ
    dof rx rz
    limits (-45.0 45.0)
           (-45.0 45.0)
  end
:hierarchy
  begin
    root lhipjoint rhipjoint lowerback
    lhipjoint lfemur
    lfemur ltibia
    ltibia lfoot
    lfoot ltoes
    rhipjoint rfemur
    rfemur rtibia
    rtibia rfoot
    rfoot rtoes
    lowerback upperback
    upperback thorax
    thorax lowerneck lclavicle rclavicle
    lowerneck upperneck
    upperneck head
    lclavicle lhumerus
    lhumerus lradius
    lradius lwrist
    lwrist lhand lthumb
    lhand lfingers
    rclavicle rhumerus
    rhumerus rradius
    rradius rwrist
    rwrist rhand rthumb
    rhand rfingers
  end

#!OML:ASF F:\twosubjects\two\Thursday\Session 1\Rory.ASF
:FULLY-SPECIFIED
:DEGREES
87
root 10.6764 18.8689 10.1587 -99.2942 -85.1722 103.402
lowerback -7.61184 -1.96218 -7.3977
upperback -0.509579 -1.95749 -2.42687
thorax 3.90464 -1.10914 1.40572
lowerneck 5.90972 -17.9543 -16.4067
upperneck 10.6085 -29.1073 22.2188
head 8.09699 -14.5837 6.93343
rclavicle 1.21165e-014 2.3059e-014
rhumerus -34.6225 -13.0093 -82.5048
rradius 27.6189
rwrist 24.9092
rhand -18.4245 26.9055
rfingers 7.12502
rthumb 7.8606 -2.92832
lclavicle 1.21165e-014 2.3059e-014
lhumerus -35.905 8.07294 66.8149
lradius 41.1746
lwrist -6.81283
lhand -11.473 32.3071
lfingers 7.12502
lthumb 14.5648 61.7758
rfemur 2.32524 5.42254 11.1913
rtibia 7.55412
rfoot -9.63315 -10.7419
rtoes -11.666
lfemur 0.954762 -2.47776 -20.9485
ltibia 6.68491
lfoot -9.48688 4.34091
ltoes 10.0095
88
root 10.6855 18.868 10.1642 -104.143 -84.9607 108.272
lowerback -7.56493 -1.93787 -7.50711
upperback -0.550135 -1.92487 -2.40062
thorax 3.83769 -1.09269 1.5
lowerneck 5.8177 -18.0322 -16.1601
upperneck 10.5659 -29.1502 22.0491
head 8.03953 -14.5937 6.83567
rclavicle 1.11257e-014 -2.54444e-014
rhumerus -34.5348 -12.6881 -82.521
rradius 27.1072
rwrist 24.4967
rhand -18.8076 26.2442
rfingers 7.12502
rthumb 7.49085 -3.60318
lclavicle 1.11257e-014 -2.54444e-014
lhumerus -35.8583 8.19177 67.0946
lradius 41.4734
lwrist -6.98069
lhand -12.5554 32.3224
lfingers 7.12502
lthumb 13.5217 61.8634
rfemur 2.32143 5.86584 11.0072
rtibia 7.24947
rfoot -9.47316 -10.6809
rtoes -10.9964
lfemur 0.759824 -2.17 -21.0909
ltibia 7.06014
lfoot -9.79874 4.55402
ltoes 10.6719
89
root 10.6894 18.8754 10.1696 -106.761 -85.1983 110.912
lowerback -7.59265 -1.99834 -7.21497
upperback -0.570196 -2.02885 -2.27419
thorax 3.8353 -1.13791 1.45724
lowerneck 5.83571 -18.1034 -15.9407
upperneck 10.453 -29.1802 21.888
head 7.94334 -14.6092 6.76046
rclavicle -9.89575e-015 5.1684e-015
rhumerus -34.6581 -12.4758 -82.5321
rradius 26.9135
rwrist 23.9581
rhand -19.726 25.431
rfingers 7.12502
rthumb 6.60436 -4.44598
lclavicle -9.89575e-015 5.1684e-015
lhumerus -35.8421 8.33793 67.322
lradius 41.8563
lwrist -6.98165
lhand -12.4058 31.789
lfingers 7.12502
lthumb 13.666 61.3204
rfemur 2.48874 6.00844 11.2741
rtibia 6.7475
rfoot -9.24084 -10.4895
rtoes -9.38732
lfemur 0.48587 -2.16482 -20.757
ltibia 7.58157
lfoot -10.2639 4.54313
ltoes 13.4453
90
root 10.6908 18.8779 10.179 -107.004 -85.5139 111
lowerback -7.45126 -2.16328 -6.86054
upperback -0.553177 -2.28945 -2.14627
thorax 3.78605 -1.25876 1.36834
lowerneck 6.03851 -18.0171 -16.1176
upperneck 10.2947 -29.1064 22.0922
head 7.90445 -14.5982 6.88286
rclavicle -4.27387e-015 2.26615e-014
rhumerus -34.9794 -13.1359 -82.176
rradius 26.8602
rwrist 24.3428
rhand -19.9579 24.7513
rfingers 7.12502
rthumb 6.38045 -5.13263
lclavicle -4.27387e-015 2.26615e-014
lhumerus -35.9442 8.43581 67.5332
lradius 42.1829
lwrist -7.16776
lhand -10.7523 30.8259
lfingers 7.12502
lthumb 15.2591 60.2431
rfemur 2.91407 5.93717 11.587
rtibia 6.2524
rfoot -8.91432 -10.6113
rtoes -11.0913
lfemur 0.43989 -2.39247 -20.445
ltibia 8.02472
lfoot -10.6308 4.41105
ltoes 15.0422
91
root 10.6987 18.874 10.1895 -107.4 -85.6256 111.236
lowerback -7.19717 -2.311 -6.72845
upperback -0.530535 -2.51798 -2.06574
thorax 3.68264 -1.36687 1.36216
lowerneck 6.05775 -18.0103 -16.1674
upperneck 10.1362 -29.0855 22.1837
head 7.86827 -14.5944 6.92444
rclavicle -3.35449e-016 -2.18663e-014
rhumerus -35.0972 -13.8518 -81.7325
rradius 26.5306
rwrist 25.2767
rhand -19.9103 23.7865
rfingers 7.12502
rthumb 6.42641 -6.09603
lclavicle -3.35449e-016 -2.18663e-014
lhumerus -35.9823 8.39595 67.7509
lradius 42.4063
lwrist -7.61866
lhand -10.1669 30.7099
lfingers 7.12502
lthumb 15.8229 60.0832
rfemur 3.45469 5.92954 11.6658
rtibia 5.47722
rfoot -8.26227 -10.6326
rtoes -12.373
lfemur 0.33116 -2.55231 -20.3721
ltibia 8.53359
lfoot -10.8012 4.33259
ltoes 14.3734
